<svg xmlns="http://www.w3.org/2000/svg" viewBox="0 0 1150 23"><path d="M1150 23c-9 0-13.7-4.6-17.5-8.3-3.4-3.3-5.9-5.7-11.2-5.7s-7.9 2.4-11.3 5.7c-3.8 3.7-8.5 8.3-17.5 8.3s-13.7-4.6-17.5-8.3c-3.4-3.3-5.9-5.7-11.2-5.7s-7.9 2.4-11.3 5.7c-3.8 3.7-8.5 8.3-17.5 8.3s-13.7-4.6-17.5-8.3c-3.4-3.3-5.9-5.7-11.2-5.7s-7.9 2.4-11.3 5.7c-3.8 3.7-8.5 8.3-17.5 8.3s-13.7-4.6-17.5-8.3c-3.4-3.3-5.9-5.7-11.2-5.7s-7.9 2.4-11.3 5.7C933.7 18.4 929 23 920 23s-13.7-4.6-17.5-8.3C899 11.4 896.6 9 891.3 9s-7.9 2.4-11.3 5.7c-3.8 3.7-8.5 8.3-17.5 8.3s-13.7-4.6-17.5-8.3c-3.4-3.3-5.9-5.7-11.2-5.7s-7.9 2.4-11.3 5.7C818.7 18.4 814 23 805 23s-13.7-4.6-17.5-8.3C784 11.4 781.6 9 776.3 9s-7.8 2.4-11.3 5.7c-3.8 3.7-8.5 8.3-17.5 8.3s-13.7-4.6-17.5-8.3c-3.4-3.3-5.9-5.7-11.2-5.7s-7.8 2.4-11.2 5.7C703.8 18.4 699 23 690 23s-13.7-4.6-17.5-8.3C669 11.4 666.6 9 661.3 9s-7.8 2.4-11.2 5.7c-3.8 3.7-8.5 8.3-17.6 8.3s-13.7-4.6-17.5-8.3c-3.4-3.3-5.9-5.7-11.2-5.7s-7.8 2.4-11.2 5.7C588.8 18.4 584 23 575 23s-13.7-4.6-17.5-8.3C554 11.4 551.6 9 546.3 9s-7.8 2.4-11.2 5.7c-3.8 3.7-8.5 8.3-17.6 8.3s-13.7-4.6-17.5-8.3c-3.4-3.3-5.9-5.7-11.2-5.7s-7.8 2.4-11.2 5.7C473.8 18.4 469 23 460 23s-13.7-4.6-17.5-8.3c-3.4-3.3-5.9-5.7-11.2-5.7s-7.8 2.4-11.2 5.7c-3.8 3.7-8.5 8.3-17.6 8.3s-13.7-4.6-17.5-8.3c-3.4-3.3-5.9-5.7-11.2-5.7s-7.8 2.4-11.2 5.7C358.8 18.4 354 23 345 23s-13.7-4.6-17.5-8.3C324 11.4 321.6 9 316.3 9s-7.8 2.4-11.2 5.7c-3.8 3.7-8.5 8.3-17.6 8.3s-13.7-4.6-17.5-8.3c-3.4-3.3-5.9-5.7-11.2-5.7s-7.8 2.4-11.2 5.7C243.8 18.4 239 23 230 23s-13.7-4.6-17.5-8.3C209 11.4 206.7 9 201.3 9s-7.8 2.4-11.3 5.7c-3.7 3.7-8.4 8.3-17.5 8.3s-13.7-4.6-17.5-8.3c-3.4-3.3-5.9-5.7-11.2-5.7s-7.8 2.4-11.3 5.7C128.9 18.4 124 23 115 23s-13.7-4.6-17.5-8.3C94 11.4 91.6 9 86.3 9s-7.8 2.4-11.3 5.7c-3.8 3.7-8.5 8.3-17.5 8.3S43.8 18.4 40 14.7C36.6 11.4 34.1 9 28.8 9s-7.9 2.4-11.3 5.7C13.7 18.4 9 23 0 23v-9c5.4 0 7.8-2.4 11.2-5.7C15 4.6 19.7 0 28.8 0s13.7 4.6 17.5 8.3c3.4 3.3 5.9 5.7 11.2 5.7s7.8-2.4 11.3-5.7C72.5 4.6 77.3 0 86.3 0s13.7 4.6 17.5 8.3c3.4 3.3 5.9 5.7 11.2 5.7s7.8-2.4 11.2-5.7c3.9-3.7 8.6-8.3 17.6-8.3s13.7 4.6 17.5 8.3c3.4 3.3 5.9 5.7 11.2 5.7s7.9-2.4 11.3-5.7c3.8-3.7 8.5-8.3 17.5-8.3s13.7 4.6 17.5 8.3c3.4 3.3 5.9 5.7 11.2 5.7s7.8-2.4 11.2-5.7c3.9-3.7 8.6-8.3 17.6-8.3s13.7 4.6 17.5 8.3c3.4 3.3 5.9 5.7 11.2 5.7s7.9-2.4 11.3-5.7c3.8-3.7 8.5-8.3 17.5-8.3s13.7 4.6 17.5 8.3c3.4 3.3 5.9 5.7 11.2 5.7s7.8-2.4 11.2-5.7c3.9-3.7 8.6-8.3 17.6-8.3s13.7 4.6 17.5 8.3c3.4 3.3 5.9 5.7 11.2 5.7s7.9-2.4 11.3-5.7c3.8-3.7 8.5-8.3 17.5-8.3s13.7 4.6 17.5 8.3c3.4 3.3 5.9 5.7 11.2 5.7s7.9-2.4 11.3-5.7C475 4.6 479.8 0 488.8 0s13.7 4.6 17.5 8.3c3.4 3.3 5.9 5.7 11.2 5.7s7.9-2.4 11.3-5.7c3.8-3.7 8.5-8.3 17.5-8.3s13.7 4.6 17.5 8.3c3.4 3.3 5.9 5.7 11.2 5.7s7.8-2.4 11.2-5.7c3.9-3.7 8.6-8.3 17.6-8.3s13.7 4.6 17.5 8.3c3.4 3.3 5.9 5.7 11.2 5.7s7.9-2.4 11.3-5.7c3.8-3.7 8.5-8.3 17.5-8.3s13.7 4.6 17.5 8.3c3.4 3.3 5.9 5.7 11.2 5.7s7.8-2.4 11.2-5.7C705 4.6 709.8 0 718.8 0s13.7 4.6 17.5 8.3c3.4 3.3 5.9 5.7 11.2 5.7s7.8-2.4 11.3-5.7c3.7-3.7 8.5-8.3 17.5-8.3s13.7 4.6 17.5 8.3c3.4 3.3 5.9 5.7 11.2 5.7s7.8-2.4 11.2-5.7C820 4.6 824.7 0 833.8 0s13.7 4.6 17.5 8.3c3.4 3.3 5.9 5.7 11.2 5.7s7.8-2.4 11.2-5.7c3.8-3.7 8.5-8.3 17.6-8.3s13.7 4.6 17.5 8.3c3.4 3.3 5.9 5.7 11.2 5.7s7.8-2.4 11.2-5.7C935 4.6 939.7 0 948.8 0s13.7 4.6 17.5 8.3c3.4 3.3 5.9 5.7 11.2 5.7s7.8-2.4 11.2-5.7c3.8-3.7 8.5-8.3 17.6-8.3s13.7 4.6 17.5 8.3c3.4 3.3 5.9 5.7 11.2 5.7s7.8-2.4 11.2-5.7c3.8-3.7 8.5-8.3 17.5-8.3s13.8 4.6 17.6 8.3c3.4 3.3 5.9 5.7 11.2 5.7s7.8-2.4 11.2-5.7c3.8-3.7 8.5-8.3 17.5-8.3s13.8 4.6 17.6 8.3c3.4 3.3 5.8 5.7 11.2 5.7z" fill="#e6e7e8"/></svg>