<svg id="Laag_1" data-name="Laag 1" xmlns="http://www.w3.org/2000/svg" viewBox="0 0 100.68 76.89"><defs><style>.cls-2{fill:#fff}</style></defs><path d="M344.25 400.71s-.92-7-3.78-10.08c-3.63-4-7.67-4.07-9.54-4.3-13.33-1-33.3-1-33.3-1h-.05s-20 0-33.31 1c-1.87.23-5.91.26-9.54 4.3-2.84 3.1-3.79 10.08-3.79 10.08s-.89 8.21-.89 16.42v7.7a163.71 163.71 0 0 0 .95 16.42s.92 7 3.78 10.08c3.63 4 8.36 3.91 10.49 4.35 7.62.76 32.35 1 32.35 1s20 0 33.33-1.05c1.87-.23 5.91-.26 9.54-4.3 2.84-3.07 3.79-10.07 3.79-10.07s.94-8.21.94-16.43v-7.69c-.02-8.22-.97-16.43-.97-16.43Z" transform="translate(-247.3 -382.56)" fill="#63d1bb"/><path class="cls-2" d="M297.61 459.45c-1 0-25-.27-32.61-1h-.27c-.27-.06-.67-.11-1.13-.17-2.5-.33-7.16-.94-10.84-5-3.35-3.61-4.38-10.77-4.48-11.57a166.32 166.32 0 0 1-1-16.74v-7.7c0-8.27.87-16.38.91-16.72v-.07c.11-.8 1.15-7.93 4.47-11.56a15.42 15.42 0 0 1 10.72-5.12l.52-.06h.13c13.28-1 33.31-1 33.52-1h.05c.2 0 20.23 0 33.51 1h.13l.52.06a15.44 15.44 0 0 1 10.71 5.11c3.35 3.62 4.38 10.77 4.48 11.58 0 .35 1 8.46 1 16.76v7.7a164.27 164.27 0 0 1-1 16.74v.05c-.1.81-1.15 8-4.47 11.57a15.44 15.44 0 0 1-10.71 5.11l-.53.06h-.13c-13.27 1-33.33 1.06-33.53 1.06ZM265.67 453c7.48.73 31.22 1 32 1s20.13-.05 33-1l.58-.06a10 10 0 0 0 7.19-3.33c1.82-2 2.85-6.93 3.07-8.56.06-.51.93-8.35.93-16.07v-7.7c0-7.76-.9-15.63-1-16.11-.32-2.39-1.44-6.79-3.07-8.54a10 10 0 0 0-7.19-3.34l-.58-.06c-13.07-1-32.83-1-33-1h-.05c-.2 0-20 0-33 1l-.58.06a10 10 0 0 0-7.18 3.34c-1.83 2-2.86 6.92-3.08 8.55-.07.59-.88 8.4-.88 16.09v7.7a159.83 159.83 0 0 0 .93 16.08c.32 2.38 1.43 6.79 3.06 8.54 2.32 2.59 5.3 3 7.48 3.26.49-.04.95.02 1.37.15Z" transform="translate(-247.3 -382.56)"/><path class="cls-2" d="M38.43 20.58v35.71l29.75-17.86-29.75-17.85z"/></svg>