<svg xmlns="http://www.w3.org/2000/svg" viewBox="0 0 1150 23"><path d="M0 0c9 0 13.7 4.6 17.5 8.3C21 11.6 23.4 14 28.8 14s7.8-2.4 11.2-5.7C43.8 4.6 48.5 0 57.5 0S71.2 4.6 75 8.3c3.4 3.3 5.9 5.7 11.3 5.7s7.8-2.4 11.2-5.7C101.3 4.6 106 0 115 0s13.7 4.6 17.5 8.3c3.4 3.3 5.9 5.7 11.3 5.7s7.8-2.4 11.2-5.7c3.8-3.7 8.5-8.3 17.5-8.3s13.7 4.6 17.5 8.3c3.4 3.3 5.9 5.7 11.2 5.7s7.9-2.4 11.3-5.7C216.3 4.6 221 0 230 0s13.7 4.6 17.5 8.3c3.4 3.3 5.9 5.7 11.2 5.7s7.9-2.4 11.3-5.7c3.8-3.7 8.5-8.3 17.5-8.3s13.7 4.6 17.5 8.3c3.4 3.3 5.9 5.7 11.2 5.7s7.9-2.4 11.3-5.7C331.3 4.6 336 0 345 0s13.7 4.6 17.5 8.3c3.4 3.3 5.9 5.7 11.2 5.7s7.9-2.4 11.3-5.7c3.8-3.7 8.5-8.3 17.5-8.3s13.7 4.6 17.5 8.3c3.4 3.3 5.9 5.7 11.2 5.7s7.8-2.4 11.3-5.7C446.2 4.6 451 0 460 0s13.7 4.6 17.5 8.3c3.4 3.3 5.9 5.7 11.2 5.7s7.9-2.4 11.3-5.7c3.7-3.7 8.4-8.3 17.5-8.3s13.7 4.6 17.5 8.3c3.4 3.3 5.9 5.7 11.2 5.7s7.8-2.4 11.3-5.7C561.2 4.6 565.9 0 575 0s13.7 4.6 17.5 8.3c3.4 3.3 5.9 5.7 11.2 5.7s7.9-2.4 11.3-5.7c3.7-3.7 8.4-8.3 17.5-8.3s13.7 4.6 17.5 8.3c3.4 3.3 5.9 5.7 11.2 5.7s7.8-2.4 11.2-5.7C676.2 4.6 681 0 690 0s13.7 4.6 17.5 8.3c3.4 3.3 5.9 5.7 11.3 5.7s7.8-2.4 11.2-5.7c3.7-3.7 8.4-8.3 17.5-8.3s13.7 4.6 17.5 8.3c3.4 3.3 5.9 5.7 11.2 5.7s7.9-2.4 11.3-5.7C791.2 4.6 795.9 0 805 0s13.7 4.6 17.5 8.3c3.4 3.3 5.9 5.7 11.2 5.7s7.9-2.4 11.3-5.7c3.7-3.7 8.4-8.3 17.5-8.3s13.7 4.6 17.5 8.3c3.4 3.3 5.9 5.7 11.2 5.7s7.9-2.4 11.3-5.7C906.2 4.6 910.9 0 920 0s13.7 4.6 17.5 8.3c3.4 3.3 5.9 5.7 11.2 5.7s7.9-2.4 11.3-5.7c3.7-3.7 8.4-8.3 17.5-8.3s13.7 4.6 17.5 8.3c3.4 3.3 5.9 5.7 11.2 5.7s7.9-2.4 11.3-5.7c3.7-3.7 8.5-8.3 17.5-8.3s13.7 4.6 17.5 8.3c3.4 3.3 5.9 5.7 11.3 5.7s7.8-2.4 11.2-5.7c3.8-3.7 8.5-8.3 17.5-8.3s13.7 4.6 17.5 8.3c3.4 3.3 6 5.7 11.3 5.7s7.8-2.4 11.2-5.7c3.8-3.7 8.5-8.3 17.5-8.3v9c-5.4 0-7.8 2.4-11.2 5.7-3.8 3.7-8.5 8.3-17.6 8.3s-13.7-4.6-17.5-8.3c-3.4-3.3-5.9-5.7-11.2-5.7s-7.8 2.4-11.3 5.7c-3.7 3.7-8.5 8.3-17.5 8.3s-13.7-4.6-17.5-8.3c-3.4-3.3-5.9-5.7-11.2-5.7s-7.8 2.4-11.2 5.7c-3.8 3.7-8.5 8.3-17.5 8.3s-13.8-4.6-17.6-8.3c-3.4-3.3-5.9-5.7-11.2-5.7s-7.9 2.4-11.3 5.7c-3.8 3.7-8.5 8.3-17.5 8.3s-13.7-4.6-17.5-8.3C927.8 11.4 925.3 9 920 9s-7.8 2.4-11.2 5.7c-3.8 3.7-8.5 8.3-17.5 8.3s-13.8-4.6-17.6-8.3c-3.4-3.3-5.9-5.7-11.2-5.7s-7.9 2.4-11.3 5.7c-3.8 3.7-8.5 8.3-17.5 8.3s-13.7-4.6-17.5-8.3C812.8 11.4 810.3 9 805 9s-7.8 2.4-11.2 5.7c-3.8 3.7-8.5 8.3-17.5 8.3s-13.8-4.6-17.6-8.3c-3.4-3.3-5.9-5.7-11.2-5.7s-7.9 2.4-11.3 5.7c-3.8 3.7-8.5 8.3-17.5 8.3s-13.7-4.6-17.5-8.3C697.8 11.4 695.3 9 690 9s-7.8 2.4-11.2 5.7c-3.8 3.7-8.5 8.3-17.5 8.3s-13.8-4.6-17.6-8.3c-3.4-3.3-5.9-5.7-11.2-5.7s-7.9 2.4-11.3 5.7c-3.8 3.7-8.5 8.3-17.5 8.3s-13.7-4.6-17.5-8.3C582.8 11.4 580.3 9 575 9s-7.8 2.4-11.2 5.7c-3.8 3.7-8.5 8.3-17.5 8.3s-13.8-4.6-17.6-8.3c-3.4-3.3-5.9-5.7-11.2-5.7s-7.9 2.4-11.3 5.7c-3.8 3.7-8.5 8.3-17.5 8.3s-13.7-4.6-17.5-8.3C467.8 11.4 465.3 9 460 9s-7.8 2.4-11.2 5.7c-3.8 3.7-8.6 8.3-17.6 8.3s-13.7-4.6-17.5-8.3c-3.4-3.3-5.9-5.7-11.2-5.7s-7.8 2.4-11.3 5.7c-3.7 3.7-8.4 8.3-17.5 8.3s-13.7-4.6-17.5-8.3C352.8 11.4 350.3 9 345 9s-7.8 2.4-11.2 5.7c-3.8 3.7-8.6 8.3-17.6 8.3s-13.7-4.6-17.5-8.3c-3.4-3.3-5.9-5.7-11.2-5.7s-7.8 2.4-11.2 5.7c-3.8 3.7-8.6 8.3-17.6 8.3s-13.7-4.6-17.5-8.3C237.8 11.4 235.4 9 230 9s-7.8 2.4-11.2 5.7c-3.8 3.7-8.5 8.3-17.6 8.3s-13.7-4.6-17.5-8.3C180.3 11.4 178 9 172.5 9s-7.8 2.4-11.2 5.7c-3.8 3.7-8.5 8.3-17.6 8.3s-13.7-4.6-17.5-8.3C122.8 11.4 120.3 9 115 9s-7.8 2.4-11.2 5.7C100 18.4 95.3 23 86.3 23s-13.8-4.6-17.6-8.3C65.3 11.4 62.8 9 57.5 9s-7.8 2.4-11.2 5.7c-3.8 3.7-8.5 8.3-17.5 8.3S15 18.4 11.1 14.7C7.8 11.4 5.4 9 0 9z" fill="#e6e7e8"/></svg>